<mxfile host="app.diagrams.net" agent="Mozilla/5.0 (Macintosh; Intel Mac OS X 10_15_7) AppleWebKit/537.36 (KHTML, like Gecko) Chrome/128.0.0.0 Safari/537.36" version="24.7.12">
  <diagram name="第 1 页" id="S2a_Qh1WlyxFz3XpLmjt">
    <mxGraphModel dx="2540" dy="1193" grid="1" gridSize="10" guides="1" tooltips="1" connect="1" arrows="1" fold="1" page="1" pageScale="1" pageWidth="827" pageHeight="1169" math="0" shadow="0">
      <root>
        <mxCell id="0" />
        <mxCell id="1" parent="0" />
        <mxCell id="y-bz2ffvv3kcDiEg6pq3-2" style="edgeStyle=none;curved=1;rounded=0;orthogonalLoop=1;jettySize=auto;html=1;fontSize=12;startSize=8;endSize=8;" parent="1" source="y-bz2ffvv3kcDiEg6pq3-1" edge="1">
          <mxGeometry relative="1" as="geometry">
            <mxPoint x="150" y="300" as="targetPoint" />
          </mxGeometry>
        </mxCell>
        <mxCell id="y-bz2ffvv3kcDiEg6pq3-4" value="下发" style="edgeLabel;html=1;align=center;verticalAlign=middle;resizable=0;points=[];fontSize=12;" parent="y-bz2ffvv3kcDiEg6pq3-2" vertex="1" connectable="0">
          <mxGeometry x="-0.0955" y="1" relative="1" as="geometry">
            <mxPoint as="offset" />
          </mxGeometry>
        </mxCell>
        <mxCell id="y-bz2ffvv3kcDiEg6pq3-7" style="edgeStyle=none;curved=1;rounded=0;orthogonalLoop=1;jettySize=auto;html=1;fontSize=12;startSize=8;endSize=8;exitX=0.5;exitY=1;exitDx=0;exitDy=0;" parent="1" source="y-bz2ffvv3kcDiEg6pq3-1" target="y-bz2ffvv3kcDiEg6pq3-5" edge="1">
          <mxGeometry relative="1" as="geometry" />
        </mxCell>
        <mxCell id="y-bz2ffvv3kcDiEg6pq3-16" value="下发" style="edgeLabel;html=1;align=center;verticalAlign=middle;resizable=0;points=[];fontSize=12;" parent="y-bz2ffvv3kcDiEg6pq3-7" vertex="1" connectable="0">
          <mxGeometry x="-0.2311" y="1" relative="1" as="geometry">
            <mxPoint as="offset" />
          </mxGeometry>
        </mxCell>
        <mxCell id="y-bz2ffvv3kcDiEg6pq3-8" style="edgeStyle=none;curved=1;rounded=0;orthogonalLoop=1;jettySize=auto;html=1;entryX=0.5;entryY=0;entryDx=0;entryDy=0;fontSize=12;startSize=8;endSize=8;exitX=0.938;exitY=0.99;exitDx=0;exitDy=0;exitPerimeter=0;" parent="1" source="y-bz2ffvv3kcDiEg6pq3-1" target="y-bz2ffvv3kcDiEg6pq3-6" edge="1">
          <mxGeometry relative="1" as="geometry" />
        </mxCell>
        <mxCell id="y-bz2ffvv3kcDiEg6pq3-17" value="下发" style="edgeLabel;html=1;align=center;verticalAlign=middle;resizable=0;points=[];fontSize=12;" parent="y-bz2ffvv3kcDiEg6pq3-8" vertex="1" connectable="0">
          <mxGeometry x="-0.084" y="1" relative="1" as="geometry">
            <mxPoint y="-1" as="offset" />
          </mxGeometry>
        </mxCell>
        <mxCell id="y-bz2ffvv3kcDiEg6pq3-1" value="" style="rounded=0;whiteSpace=wrap;html=1;" parent="1" vertex="1">
          <mxGeometry x="220" y="10" width="140" height="170" as="geometry" />
        </mxCell>
        <mxCell id="y-bz2ffvv3kcDiEg6pq3-25" style="edgeStyle=none;curved=1;rounded=0;orthogonalLoop=1;jettySize=auto;html=1;entryX=0.376;entryY=-0.007;entryDx=0;entryDy=0;fontSize=12;startSize=8;endSize=8;dashed=1;entryPerimeter=0;" parent="1" source="y-bz2ffvv3kcDiEg6pq3-3" target="y-bz2ffvv3kcDiEg6pq3-24" edge="1">
          <mxGeometry relative="1" as="geometry" />
        </mxCell>
        <mxCell id="y-bz2ffvv3kcDiEg6pq3-33" style="edgeStyle=orthogonalEdgeStyle;rounded=0;orthogonalLoop=1;jettySize=auto;html=1;fontSize=12;startSize=8;endSize=8;entryX=0.098;entryY=0.043;entryDx=0;entryDy=0;entryPerimeter=0;exitX=0;exitY=0.5;exitDx=0;exitDy=0;" parent="1" source="y-bz2ffvv3kcDiEg6pq3-3" target="y-bz2ffvv3kcDiEg6pq3-30" edge="1">
          <mxGeometry relative="1" as="geometry">
            <mxPoint x="-120" y="680" as="targetPoint" />
            <Array as="points">
              <mxPoint x="-131" y="330" />
            </Array>
          </mxGeometry>
        </mxCell>
        <mxCell id="y-bz2ffvv3kcDiEg6pq3-34" value="缓存预热&lt;br&gt;服务启动&lt;br&gt;读取集群热点信息" style="edgeLabel;html=1;align=center;verticalAlign=middle;resizable=0;points=[];fontSize=12;" parent="y-bz2ffvv3kcDiEg6pq3-33" vertex="1" connectable="0">
          <mxGeometry x="0.0852" y="2" relative="1" as="geometry">
            <mxPoint y="35" as="offset" />
          </mxGeometry>
        </mxCell>
        <mxCell id="y-bz2ffvv3kcDiEg6pq3-3" value="Node1" style="rounded=0;whiteSpace=wrap;html=1;" parent="1" vertex="1">
          <mxGeometry x="70" y="300" width="120" height="60" as="geometry" />
        </mxCell>
        <mxCell id="y-bz2ffvv3kcDiEg6pq3-5" value="Node2" style="rounded=0;whiteSpace=wrap;html=1;" parent="1" vertex="1">
          <mxGeometry x="250" y="300" width="120" height="60" as="geometry" />
        </mxCell>
        <mxCell id="y-bz2ffvv3kcDiEg6pq3-6" value="Node3" style="rounded=0;whiteSpace=wrap;html=1;" parent="1" vertex="1">
          <mxGeometry x="425" y="300" width="120" height="60" as="geometry" />
        </mxCell>
        <mxCell id="y-bz2ffvv3kcDiEg6pq3-10" style="edgeStyle=none;curved=1;rounded=0;orthogonalLoop=1;jettySize=auto;html=1;fontSize=12;startSize=8;endSize=8;entryX=0;entryY=0.5;entryDx=0;entryDy=0;" parent="1" source="y-bz2ffvv3kcDiEg6pq3-9" target="y-bz2ffvv3kcDiEg6pq3-14" edge="1">
          <mxGeometry relative="1" as="geometry">
            <mxPoint x="210" y="140" as="targetPoint" />
          </mxGeometry>
        </mxCell>
        <mxCell id="y-bz2ffvv3kcDiEg6pq3-9" value="服务发现" style="rounded=0;whiteSpace=wrap;html=1;" parent="1" vertex="1">
          <mxGeometry x="-10" y="65" width="120" height="60" as="geometry" />
        </mxCell>
        <mxCell id="y-bz2ffvv3kcDiEg6pq3-13" style="edgeStyle=none;curved=1;rounded=0;orthogonalLoop=1;jettySize=auto;html=1;entryX=0;entryY=0.5;entryDx=0;entryDy=0;fontSize=12;startSize=8;endSize=8;" parent="1" source="y-bz2ffvv3kcDiEg6pq3-11" target="y-bz2ffvv3kcDiEg6pq3-12" edge="1">
          <mxGeometry relative="1" as="geometry" />
        </mxCell>
        <mxCell id="y-bz2ffvv3kcDiEg6pq3-15" value="" style="edgeStyle=none;curved=1;rounded=0;orthogonalLoop=1;jettySize=auto;html=1;fontSize=12;startSize=8;endSize=8;" parent="1" source="y-bz2ffvv3kcDiEg6pq3-11" target="y-bz2ffvv3kcDiEg6pq3-14" edge="1">
          <mxGeometry relative="1" as="geometry" />
        </mxCell>
        <mxCell id="y-bz2ffvv3kcDiEg6pq3-11" value="拉取配置" style="rounded=0;whiteSpace=wrap;html=1;" parent="1" vertex="1">
          <mxGeometry x="230" y="24" width="120" height="30" as="geometry" />
        </mxCell>
        <mxCell id="y-bz2ffvv3kcDiEg6pq3-12" value="容量配置中心" style="rounded=0;whiteSpace=wrap;html=1;" parent="1" vertex="1">
          <mxGeometry x="450" y="10" width="120" height="60" as="geometry" />
        </mxCell>
        <mxCell id="y-bz2ffvv3kcDiEg6pq3-21" style="edgeStyle=none;curved=1;rounded=0;orthogonalLoop=1;jettySize=auto;html=1;entryX=0.5;entryY=0;entryDx=0;entryDy=0;fontSize=12;startSize=8;endSize=8;" parent="1" source="y-bz2ffvv3kcDiEg6pq3-14" target="y-bz2ffvv3kcDiEg6pq3-18" edge="1">
          <mxGeometry relative="1" as="geometry" />
        </mxCell>
        <mxCell id="y-bz2ffvv3kcDiEg6pq3-14" value="拉取存活ip列表" style="rounded=0;whiteSpace=wrap;html=1;" parent="1" vertex="1">
          <mxGeometry x="230" y="82" width="120" height="30" as="geometry" />
        </mxCell>
        <mxCell id="y-bz2ffvv3kcDiEg6pq3-18" value="均摊热点阈值" style="rounded=0;whiteSpace=wrap;html=1;" parent="1" vertex="1">
          <mxGeometry x="230" y="139" width="120" height="30" as="geometry" />
        </mxCell>
        <mxCell id="y-bz2ffvv3kcDiEg6pq3-20" value="单机SDK探测" style="text;html=1;align=center;verticalAlign=middle;whiteSpace=wrap;rounded=0;fontSize=16;" parent="1" vertex="1">
          <mxGeometry x="-140" y="15" width="100" height="50" as="geometry" />
        </mxCell>
        <mxCell id="y-bz2ffvv3kcDiEg6pq3-31" value="" style="edgeStyle=none;curved=1;rounded=0;orthogonalLoop=1;jettySize=auto;html=1;fontSize=12;startSize=8;endSize=8;exitX=0.397;exitY=0.993;exitDx=0;exitDy=0;exitPerimeter=0;entryX=0.515;entryY=-0.028;entryDx=0;entryDy=0;entryPerimeter=0;" parent="1" source="y-bz2ffvv3kcDiEg6pq3-24" target="y-bz2ffvv3kcDiEg6pq3-30" edge="1">
          <mxGeometry relative="1" as="geometry" />
        </mxCell>
        <mxCell id="y-bz2ffvv3kcDiEg6pq3-35" value="热点上报" style="edgeLabel;html=1;align=center;verticalAlign=middle;resizable=0;points=[];fontSize=12;" parent="y-bz2ffvv3kcDiEg6pq3-31" vertex="1" connectable="0">
          <mxGeometry x="-0.1594" y="-3" relative="1" as="geometry">
            <mxPoint as="offset" />
          </mxGeometry>
        </mxCell>
        <mxCell id="y-bz2ffvv3kcDiEg6pq3-24" value="" style="rounded=0;whiteSpace=wrap;html=1;" parent="1" vertex="1">
          <mxGeometry x="23" y="450" width="300" height="170" as="geometry" />
        </mxCell>
        <mxCell id="y-bz2ffvv3kcDiEg6pq3-28" value="" style="edgeStyle=none;curved=1;rounded=0;orthogonalLoop=1;jettySize=auto;html=1;fontSize=12;startSize=8;endSize=8;" parent="1" source="y-bz2ffvv3kcDiEg6pq3-26" target="y-bz2ffvv3kcDiEg6pq3-27" edge="1">
          <mxGeometry relative="1" as="geometry" />
        </mxCell>
        <mxCell id="y-bz2ffvv3kcDiEg6pq3-26" value="滑动窗口定期统计" style="rounded=0;whiteSpace=wrap;html=1;" parent="1" vertex="1">
          <mxGeometry x="40" y="470" width="180" height="50" as="geometry" />
        </mxCell>
        <mxCell id="y-bz2ffvv3kcDiEg6pq3-27" value="存到本地缓存" style="rounded=0;whiteSpace=wrap;html=1;" parent="1" vertex="1">
          <mxGeometry x="40" y="550" width="180" height="50" as="geometry" />
        </mxCell>
        <mxCell id="y-bz2ffvv3kcDiEg6pq3-30" value="集群热点配置中心" style="whiteSpace=wrap;html=1;rounded=0;" parent="1" vertex="1">
          <mxGeometry x="-195" y="690" width="650" height="60" as="geometry" />
        </mxCell>
        <mxCell id="y-bz2ffvv3kcDiEg6pq3-36" value="热点计算" style="text;html=1;align=center;verticalAlign=middle;whiteSpace=wrap;rounded=0;fontSize=16;" parent="1" vertex="1">
          <mxGeometry x="230" y="498" width="80" height="30" as="geometry" />
        </mxCell>
        <mxCell id="y-bz2ffvv3kcDiEg6pq3-37" value="热点探测" style="text;html=1;align=center;verticalAlign=middle;whiteSpace=wrap;rounded=0;fontSize=16;" parent="1" vertex="1">
          <mxGeometry x="230" y="468" width="80" height="30" as="geometry" />
        </mxCell>
        <mxCell id="y-bz2ffvv3kcDiEg6pq3-38" value="热点识别" style="text;html=1;align=center;verticalAlign=middle;whiteSpace=wrap;rounded=0;fontSize=16;" parent="1" vertex="1">
          <mxGeometry x="230" y="560" width="80" height="30" as="geometry" />
        </mxCell>
        <mxCell id="AdxYsyamv9uiAGiULzO7-1" value="" style="rounded=0;whiteSpace=wrap;html=1;" vertex="1" parent="1">
          <mxGeometry x="276.5" y="1710" width="300" height="490" as="geometry" />
        </mxCell>
        <mxCell id="AdxYsyamv9uiAGiULzO7-2" value="&lt;b style=&quot;&quot;&gt;&lt;font style=&quot;font-size: 16px;&quot;&gt;评论列表&lt;/font&gt;&lt;/b&gt;" style="text;html=1;align=center;verticalAlign=middle;whiteSpace=wrap;rounded=0;fontSize=16;" vertex="1" parent="1">
          <mxGeometry x="461.5" y="1640" width="175" height="60" as="geometry" />
        </mxCell>
        <mxCell id="AdxYsyamv9uiAGiULzO7-5" value="" style="edgeStyle=none;curved=1;rounded=0;orthogonalLoop=1;jettySize=auto;html=1;fontSize=12;startSize=8;endSize=8;" edge="1" parent="1" source="AdxYsyamv9uiAGiULzO7-3" target="AdxYsyamv9uiAGiULzO7-4">
          <mxGeometry relative="1" as="geometry" />
        </mxCell>
        <mxCell id="AdxYsyamv9uiAGiULzO7-14" value="" style="edgeStyle=none;curved=1;rounded=0;orthogonalLoop=1;jettySize=auto;html=1;fontSize=12;startSize=8;endSize=8;" edge="1" parent="1" source="AdxYsyamv9uiAGiULzO7-3" target="AdxYsyamv9uiAGiULzO7-13">
          <mxGeometry relative="1" as="geometry" />
        </mxCell>
        <mxCell id="AdxYsyamv9uiAGiULzO7-3" value="Index RPC" style="rounded=0;whiteSpace=wrap;html=1;" vertex="1" parent="1">
          <mxGeometry x="321.5" y="1830" width="220" height="40" as="geometry" />
        </mxCell>
        <mxCell id="AdxYsyamv9uiAGiULzO7-7" value="" style="edgeStyle=none;curved=1;rounded=0;orthogonalLoop=1;jettySize=auto;html=1;fontSize=12;startSize=8;endSize=8;" edge="1" parent="1" source="AdxYsyamv9uiAGiULzO7-4" target="AdxYsyamv9uiAGiULzO7-6">
          <mxGeometry relative="1" as="geometry" />
        </mxCell>
        <mxCell id="AdxYsyamv9uiAGiULzO7-21" style="edgeStyle=orthogonalEdgeStyle;rounded=0;orthogonalLoop=1;jettySize=auto;html=1;entryX=0;entryY=0.5;entryDx=0;entryDy=0;fontSize=12;startSize=8;endSize=8;exitX=1;exitY=0.5;exitDx=0;exitDy=0;" edge="1" parent="1" source="AdxYsyamv9uiAGiULzO7-4" target="AdxYsyamv9uiAGiULzO7-20">
          <mxGeometry relative="1" as="geometry">
            <Array as="points">
              <mxPoint x="626.5" y="1927" />
              <mxPoint x="626.5" y="2080" />
            </Array>
          </mxGeometry>
        </mxCell>
        <mxCell id="AdxYsyamv9uiAGiULzO7-4" value="Comment RPC" style="rounded=0;whiteSpace=wrap;html=1;" vertex="1" parent="1">
          <mxGeometry x="321.5" y="1907" width="220" height="40" as="geometry" />
        </mxCell>
        <mxCell id="AdxYsyamv9uiAGiULzO7-9" value="" style="edgeStyle=none;curved=1;rounded=0;orthogonalLoop=1;jettySize=auto;html=1;fontSize=12;startSize=8;endSize=8;" edge="1" parent="1" source="AdxYsyamv9uiAGiULzO7-6" target="AdxYsyamv9uiAGiULzO7-8">
          <mxGeometry relative="1" as="geometry" />
        </mxCell>
        <mxCell id="AdxYsyamv9uiAGiULzO7-22" style="edgeStyle=orthogonalEdgeStyle;rounded=0;orthogonalLoop=1;jettySize=auto;html=1;fontSize=12;startSize=8;endSize=8;" edge="1" parent="1" source="AdxYsyamv9uiAGiULzO7-6">
          <mxGeometry relative="1" as="geometry">
            <mxPoint x="706.5" y="2080" as="targetPoint" />
            <Array as="points">
              <mxPoint x="626.5" y="2000" />
              <mxPoint x="626.5" y="2080" />
            </Array>
          </mxGeometry>
        </mxCell>
        <mxCell id="AdxYsyamv9uiAGiULzO7-6" value="User RPC" style="rounded=0;whiteSpace=wrap;html=1;" vertex="1" parent="1">
          <mxGeometry x="321.5" y="1980" width="220" height="40" as="geometry" />
        </mxCell>
        <mxCell id="AdxYsyamv9uiAGiULzO7-11" value="" style="edgeStyle=none;curved=1;rounded=0;orthogonalLoop=1;jettySize=auto;html=1;fontSize=12;startSize=8;endSize=8;" edge="1" parent="1" source="AdxYsyamv9uiAGiULzO7-8" target="AdxYsyamv9uiAGiULzO7-10">
          <mxGeometry relative="1" as="geometry" />
        </mxCell>
        <mxCell id="AdxYsyamv9uiAGiULzO7-35" value="set" style="edgeLabel;html=1;align=center;verticalAlign=middle;resizable=0;points=[];fontSize=12;" vertex="1" connectable="0" parent="AdxYsyamv9uiAGiULzO7-11">
          <mxGeometry x="-0.1894" y="-2" relative="1" as="geometry">
            <mxPoint as="offset" />
          </mxGeometry>
        </mxCell>
        <mxCell id="AdxYsyamv9uiAGiULzO7-8" value="assemble" style="rounded=0;whiteSpace=wrap;html=1;" vertex="1" parent="1">
          <mxGeometry x="321.5" y="2057" width="220" height="40" as="geometry" />
        </mxCell>
        <mxCell id="AdxYsyamv9uiAGiULzO7-10" value="redis-cache" style="rounded=0;whiteSpace=wrap;html=1;fillColor=#dae8fc;strokeColor=#6c8ebf;" vertex="1" parent="1">
          <mxGeometry x="321.5" y="2130" width="220" height="40" as="geometry" />
        </mxCell>
        <mxCell id="AdxYsyamv9uiAGiULzO7-13" value="" style="whiteSpace=wrap;html=1;rounded=0;" vertex="1" parent="1">
          <mxGeometry x="708.5" y="1775" width="238" height="150" as="geometry" />
        </mxCell>
        <mxCell id="AdxYsyamv9uiAGiULzO7-16" value="索引中心" style="text;html=1;align=center;verticalAlign=middle;whiteSpace=wrap;rounded=0;fontSize=16;" vertex="1" parent="1">
          <mxGeometry x="776.5" y="1745" width="90" height="30" as="geometry" />
        </mxCell>
        <mxCell id="AdxYsyamv9uiAGiULzO7-31" value="" style="edgeStyle=none;curved=1;rounded=0;orthogonalLoop=1;jettySize=auto;html=1;fontSize=12;startSize=8;endSize=8;entryX=0.5;entryY=0;entryDx=0;entryDy=0;" edge="1" parent="1" source="AdxYsyamv9uiAGiULzO7-17" target="AdxYsyamv9uiAGiULzO7-18">
          <mxGeometry relative="1" as="geometry" />
        </mxCell>
        <mxCell id="AdxYsyamv9uiAGiULzO7-17" value="local cache&amp;nbsp;" style="rounded=0;whiteSpace=wrap;html=1;" vertex="1" parent="1">
          <mxGeometry x="756.5" y="1790" width="140" height="40" as="geometry" />
        </mxCell>
        <mxCell id="AdxYsyamv9uiAGiULzO7-18" value="redis" style="rounded=0;whiteSpace=wrap;html=1;" vertex="1" parent="1">
          <mxGeometry x="757.5" y="1860" width="140" height="40" as="geometry" />
        </mxCell>
        <mxCell id="AdxYsyamv9uiAGiULzO7-20" value="" style="rounded=0;whiteSpace=wrap;html=1;" vertex="1" parent="1">
          <mxGeometry x="708.5" y="1960" width="238" height="240" as="geometry" />
        </mxCell>
        <mxCell id="AdxYsyamv9uiAGiULzO7-32" style="edgeStyle=none;curved=1;rounded=0;orthogonalLoop=1;jettySize=auto;html=1;fontSize=12;startSize=8;endSize=8;exitX=0.5;exitY=1;exitDx=0;exitDy=0;entryX=0.5;entryY=0;entryDx=0;entryDy=0;" edge="1" parent="1" source="AdxYsyamv9uiAGiULzO7-23" target="AdxYsyamv9uiAGiULzO7-24">
          <mxGeometry relative="1" as="geometry" />
        </mxCell>
        <mxCell id="AdxYsyamv9uiAGiULzO7-23" value="local cache&amp;nbsp;" style="rounded=0;whiteSpace=wrap;html=1;" vertex="1" parent="1">
          <mxGeometry x="757.5" y="1980" width="140" height="40" as="geometry" />
        </mxCell>
        <mxCell id="AdxYsyamv9uiAGiULzO7-33" style="edgeStyle=none;curved=1;rounded=0;orthogonalLoop=1;jettySize=auto;html=1;fontSize=12;startSize=8;endSize=8;entryX=0.484;entryY=0.009;entryDx=0;entryDy=0;entryPerimeter=0;" edge="1" parent="1" source="AdxYsyamv9uiAGiULzO7-24" target="AdxYsyamv9uiAGiULzO7-25">
          <mxGeometry relative="1" as="geometry" />
        </mxCell>
        <mxCell id="AdxYsyamv9uiAGiULzO7-24" value="redis" style="rounded=0;whiteSpace=wrap;html=1;" vertex="1" parent="1">
          <mxGeometry x="758.5" y="2050" width="140" height="40" as="geometry" />
        </mxCell>
        <mxCell id="AdxYsyamv9uiAGiULzO7-25" value="mysql" style="rounded=0;whiteSpace=wrap;html=1;" vertex="1" parent="1">
          <mxGeometry x="758.5" y="2130" width="140" height="40" as="geometry" />
        </mxCell>
        <mxCell id="AdxYsyamv9uiAGiULzO7-37" style="edgeStyle=none;curved=1;rounded=0;orthogonalLoop=1;jettySize=auto;html=1;fontSize=12;startSize=8;endSize=8;entryX=0.5;entryY=0;entryDx=0;entryDy=0;" edge="1" parent="1" source="AdxYsyamv9uiAGiULzO7-36" target="AdxYsyamv9uiAGiULzO7-3">
          <mxGeometry relative="1" as="geometry" />
        </mxCell>
        <mxCell id="AdxYsyamv9uiAGiULzO7-38" value="miss" style="edgeLabel;html=1;align=center;verticalAlign=middle;resizable=0;points=[];fontSize=12;" vertex="1" connectable="0" parent="AdxYsyamv9uiAGiULzO7-37">
          <mxGeometry x="-0.2136" y="-2" relative="1" as="geometry">
            <mxPoint as="offset" />
          </mxGeometry>
        </mxCell>
        <mxCell id="AdxYsyamv9uiAGiULzO7-36" value="redis-cache" style="rounded=0;whiteSpace=wrap;html=1;fillColor=#dae8fc;strokeColor=#6c8ebf;" vertex="1" parent="1">
          <mxGeometry x="321.5" y="1745" width="220" height="40" as="geometry" />
        </mxCell>
        <mxCell id="AdxYsyamv9uiAGiULzO7-39" value="" style="endArrow=classic;html=1;rounded=0;fontSize=12;startSize=8;endSize=8;exitX=1;exitY=0.5;exitDx=0;exitDy=0;edgeStyle=orthogonalEdgeStyle;" edge="1" parent="1" source="AdxYsyamv9uiAGiULzO7-41" target="AdxYsyamv9uiAGiULzO7-36">
          <mxGeometry width="50" height="50" relative="1" as="geometry">
            <mxPoint x="-13.5" y="1765" as="sourcePoint" />
            <mxPoint x="-13.5" y="1830" as="targetPoint" />
          </mxGeometry>
        </mxCell>
        <mxCell id="AdxYsyamv9uiAGiULzO7-42" value="N" style="edgeLabel;html=1;align=center;verticalAlign=middle;resizable=0;points=[];fontSize=12;" vertex="1" connectable="0" parent="AdxYsyamv9uiAGiULzO7-39">
          <mxGeometry x="-0.2672" relative="1" as="geometry">
            <mxPoint as="offset" />
          </mxGeometry>
        </mxCell>
        <mxCell id="AdxYsyamv9uiAGiULzO7-41" value="是否热点" style="rhombus;whiteSpace=wrap;html=1;" vertex="1" parent="1">
          <mxGeometry x="86.5" y="1590" width="80" height="80" as="geometry" />
        </mxCell>
        <mxCell id="AdxYsyamv9uiAGiULzO7-44" value="" style="rounded=0;whiteSpace=wrap;html=1;" vertex="1" parent="1">
          <mxGeometry x="-437" y="1710" width="436.5" height="510" as="geometry" />
        </mxCell>
        <mxCell id="AdxYsyamv9uiAGiULzO7-50" value="" style="edgeStyle=orthogonalEdgeStyle;rounded=0;orthogonalLoop=1;jettySize=auto;html=1;fontSize=12;startSize=8;endSize=8;exitX=1;exitY=0.5;exitDx=0;exitDy=0;entryX=0.5;entryY=0;entryDx=0;entryDy=0;" edge="1" parent="1" source="AdxYsyamv9uiAGiULzO7-47" target="AdxYsyamv9uiAGiULzO7-49">
          <mxGeometry relative="1" as="geometry" />
        </mxCell>
        <mxCell id="AdxYsyamv9uiAGiULzO7-62" value="Y" style="edgeLabel;html=1;align=center;verticalAlign=middle;resizable=0;points=[];fontSize=12;" vertex="1" connectable="0" parent="AdxYsyamv9uiAGiULzO7-50">
          <mxGeometry x="0.1424" y="-3" relative="1" as="geometry">
            <mxPoint as="offset" />
          </mxGeometry>
        </mxCell>
        <mxCell id="AdxYsyamv9uiAGiULzO7-47" value="是否首页" style="rhombus;whiteSpace=wrap;html=1;" vertex="1" parent="1">
          <mxGeometry x="-253.5" y="1740" width="80" height="80" as="geometry" />
        </mxCell>
        <mxCell id="AdxYsyamv9uiAGiULzO7-43" style="edgeStyle=orthogonalEdgeStyle;rounded=0;orthogonalLoop=1;jettySize=auto;html=1;fontSize=12;startSize=8;endSize=8;entryX=0.5;entryY=0;entryDx=0;entryDy=0;" edge="1" parent="1" source="AdxYsyamv9uiAGiULzO7-41" target="AdxYsyamv9uiAGiULzO7-47">
          <mxGeometry relative="1" as="geometry">
            <mxPoint x="-253.5" y="1765" as="targetPoint" />
          </mxGeometry>
        </mxCell>
        <mxCell id="AdxYsyamv9uiAGiULzO7-45" value="Y" style="edgeLabel;html=1;align=center;verticalAlign=middle;resizable=0;points=[];fontSize=12;" vertex="1" connectable="0" parent="AdxYsyamv9uiAGiULzO7-43">
          <mxGeometry x="-0.0324" relative="1" as="geometry">
            <mxPoint as="offset" />
          </mxGeometry>
        </mxCell>
        <mxCell id="AdxYsyamv9uiAGiULzO7-49" value="" style="whiteSpace=wrap;html=1;" vertex="1" parent="1">
          <mxGeometry x="-173.5" y="1870" width="150" height="260" as="geometry" />
        </mxCell>
        <mxCell id="AdxYsyamv9uiAGiULzO7-54" value="" style="edgeStyle=none;curved=1;rounded=0;orthogonalLoop=1;jettySize=auto;html=1;fontSize=12;startSize=8;endSize=8;" edge="1" parent="1" source="AdxYsyamv9uiAGiULzO7-51" target="AdxYsyamv9uiAGiULzO7-53">
          <mxGeometry relative="1" as="geometry" />
        </mxCell>
        <mxCell id="AdxYsyamv9uiAGiULzO7-51" value="local cache" style="rounded=0;whiteSpace=wrap;html=1;" vertex="1" parent="1">
          <mxGeometry x="-160.5" y="1887" width="125" height="43" as="geometry" />
        </mxCell>
        <mxCell id="AdxYsyamv9uiAGiULzO7-64" value="" style="edgeStyle=none;curved=1;rounded=0;orthogonalLoop=1;jettySize=auto;html=1;fontSize=12;startSize=8;endSize=8;entryX=0.5;entryY=0;entryDx=0;entryDy=0;" edge="1" parent="1" source="AdxYsyamv9uiAGiULzO7-53" target="AdxYsyamv9uiAGiULzO7-65">
          <mxGeometry relative="1" as="geometry">
            <mxPoint x="-99.5" y="2060.0000000000005" as="targetPoint" />
          </mxGeometry>
        </mxCell>
        <mxCell id="AdxYsyamv9uiAGiULzO7-66" value="set" style="edgeLabel;html=1;align=center;verticalAlign=middle;resizable=0;points=[];fontSize=12;" vertex="1" connectable="0" parent="AdxYsyamv9uiAGiULzO7-64">
          <mxGeometry x="-0.2559" relative="1" as="geometry">
            <mxPoint y="1" as="offset" />
          </mxGeometry>
        </mxCell>
        <mxCell id="AdxYsyamv9uiAGiULzO7-53" value="miss" style="rhombus;whiteSpace=wrap;html=1;" vertex="1" parent="1">
          <mxGeometry x="-136" y="1970" width="75" height="60" as="geometry" />
        </mxCell>
        <mxCell id="AdxYsyamv9uiAGiULzO7-55" style="edgeStyle=none;curved=1;rounded=0;orthogonalLoop=1;jettySize=auto;html=1;entryX=0.013;entryY=0.587;entryDx=0;entryDy=0;entryPerimeter=0;fontSize=12;startSize=8;endSize=8;startArrow=classic;startFill=1;" edge="1" parent="1" source="AdxYsyamv9uiAGiULzO7-53" target="AdxYsyamv9uiAGiULzO7-1">
          <mxGeometry relative="1" as="geometry" />
        </mxCell>
        <mxCell id="AdxYsyamv9uiAGiULzO7-56" value="Y" style="edgeLabel;html=1;align=center;verticalAlign=middle;resizable=0;points=[];fontSize=12;" vertex="1" connectable="0" parent="AdxYsyamv9uiAGiULzO7-55">
          <mxGeometry x="-0.2284" y="5" relative="1" as="geometry">
            <mxPoint x="1" as="offset" />
          </mxGeometry>
        </mxCell>
        <mxCell id="AdxYsyamv9uiAGiULzO7-60" value="" style="whiteSpace=wrap;html=1;" vertex="1" parent="1">
          <mxGeometry x="-415" y="1870" width="150" height="260" as="geometry" />
        </mxCell>
        <mxCell id="AdxYsyamv9uiAGiULzO7-61" style="edgeStyle=orthogonalEdgeStyle;rounded=0;orthogonalLoop=1;jettySize=auto;html=1;entryX=0.5;entryY=0;entryDx=0;entryDy=0;fontSize=12;startSize=8;endSize=8;exitX=0;exitY=0.5;exitDx=0;exitDy=0;" edge="1" parent="1" source="AdxYsyamv9uiAGiULzO7-47" target="AdxYsyamv9uiAGiULzO7-60">
          <mxGeometry relative="1" as="geometry" />
        </mxCell>
        <mxCell id="AdxYsyamv9uiAGiULzO7-68" value="N&lt;div&gt;&lt;br&gt;&lt;/div&gt;" style="edgeLabel;html=1;align=center;verticalAlign=middle;resizable=0;points=[];fontSize=12;" vertex="1" connectable="0" parent="AdxYsyamv9uiAGiULzO7-61">
          <mxGeometry x="0.4246" y="2" relative="1" as="geometry">
            <mxPoint x="-2" y="1" as="offset" />
          </mxGeometry>
        </mxCell>
        <mxCell id="AdxYsyamv9uiAGiULzO7-65" value="local cache" style="rounded=0;whiteSpace=wrap;html=1;" vertex="1" parent="1">
          <mxGeometry x="-160.5" y="2070" width="125" height="43" as="geometry" />
        </mxCell>
        <mxCell id="AdxYsyamv9uiAGiULzO7-69" value="redis-cache&amp;nbsp;" style="rounded=0;whiteSpace=wrap;html=1;fillColor=#dae8fc;strokeColor=#6c8ebf;" vertex="1" parent="1">
          <mxGeometry x="-390" y="1935" width="83.5" height="40" as="geometry" />
        </mxCell>
        <mxCell id="AdxYsyamv9uiAGiULzO7-70" style="edgeStyle=none;curved=1;rounded=0;orthogonalLoop=1;jettySize=auto;html=1;exitX=0.5;exitY=0;exitDx=0;exitDy=0;fontSize=12;startSize=8;endSize=8;" edge="1" parent="1" source="AdxYsyamv9uiAGiULzO7-60" target="AdxYsyamv9uiAGiULzO7-60">
          <mxGeometry relative="1" as="geometry" />
        </mxCell>
        <mxCell id="AdxYsyamv9uiAGiULzO7-71" value="" style="endArrow=classic;html=1;rounded=0;fontSize=12;startSize=8;endSize=8;curved=1;entryX=0.5;entryY=0;entryDx=0;entryDy=0;" edge="1" parent="1" source="AdxYsyamv9uiAGiULzO7-60" target="AdxYsyamv9uiAGiULzO7-69">
          <mxGeometry width="50" height="50" relative="1" as="geometry">
            <mxPoint x="-220" y="1930" as="sourcePoint" />
            <mxPoint x="-170" y="1880" as="targetPoint" />
          </mxGeometry>
        </mxCell>
        <mxCell id="AdxYsyamv9uiAGiULzO7-72" value="uid % 10" style="edgeLabel;html=1;align=center;verticalAlign=middle;resizable=0;points=[];fontSize=12;" vertex="1" connectable="0" parent="AdxYsyamv9uiAGiULzO7-71">
          <mxGeometry x="-0.1029" y="-1" relative="1" as="geometry">
            <mxPoint as="offset" />
          </mxGeometry>
        </mxCell>
        <mxCell id="AdxYsyamv9uiAGiULzO7-73" value="Local Cache" style="rounded=0;whiteSpace=wrap;html=1;" vertex="1" parent="1">
          <mxGeometry x="70" y="2470" width="323" height="80" as="geometry" />
        </mxCell>
      </root>
    </mxGraphModel>
  </diagram>
</mxfile>
